<?xml version="1.0" standalone="no"?>
<!DOCTYPE svg PUBLIC "-//W3C//DTD SVG 20010904//EN"
 "http://www.w3.org/TR/2001/REC-SVG-20010904/DTD/svg10.dtd">
<svg version="1.0" xmlns="http://www.w3.org/2000/svg"
 width="960.000000pt" height="960.000000pt" viewBox="0 0 960.000000 960.000000"
 preserveAspectRatio="xMidYMid meet">
<metadata>
Created by potrace 1.11, written by Peter Selinger 2001-2013
</metadata>
<g transform="translate(0.000000,960.000000) scale(0.100000,-0.100000)"
fill="#000000" stroke="none">
<path d="M1596 8083 c-1 -2 -33 -5 -70 -8 -81 -7 -179 -36 -266 -79 -71 -35
-112 -58 -120 -67 -3 -3 -23 -18 -45 -34 -192 -140 -348 -399 -370 -612 -8
-76 -8 -3268 0 -3357 6 -69 47 -208 81 -276 16 -32 83 -136 109 -168 14 -19
150 -155 166 -167 79 -60 231 -145 261 -145 9 0 19 -4 22 -9 3 -4 25 -12 48
-16 24 -4 50 -10 58 -13 8 -3 197 -7 420 -9 223 -2 410 -6 417 -8 10 -3 12
-159 12 -692 0 -378 0 -762 1 -852 l0 -164 857 856 857 857 343 0 c266 0 344
-3 347 -12 2 -7 10 -40 17 -73 7 -33 15 -64 18 -70 3 -5 6 -13 7 -17 1 -5 3
-10 4 -13 1 -3 3 -8 5 -12 12 -42 91 -181 138 -240 36 -46 176 -177 220 -206
189 -124 329 -164 552 -156 25 1 48 -1 52 -4 3 -4 13 -2 23 3 10 5 20 6 24 3
3 -3 27 -5 54 -4 71 3 135 0 144 -5 4 -3 8 -1 8 5 0 5 11 6 27 2 16 -4 44 -4
65 -1 20 4 42 4 49 -1 7 -4 20 -4 29 1 9 5 22 5 29 1 7 -5 30 -5 51 -1 21 4
44 4 51 -1 7 -4 20 -4 30 1 9 5 19 7 22 3 4 -3 27 -5 52 -4 86 2 130 2 158 -2
15 -2 30 0 33 5 3 4 10 6 15 3 14 -9 89 -12 89 -3 0 3 13 3 29 -2 16 -4 32 -6
35 -3 8 8 95 7 103 0 3 -4 13 -2 23 3 10 5 20 6 24 3 3 -3 27 -6 54 -5 113 5
130 5 140 -2 6 -3 13 -2 17 3 3 6 15 6 33 0 15 -5 223 -205 472 -454 245 -245
448 -445 451 -445 10 0 16 70 7 76 -4 3 -3 15 2 28 4 12 4 29 0 36 -5 8 -6 18
-3 23 3 4 4 95 4 200 -1 106 -1 200 -1 210 0 20 0 36 -1 75 0 15 1 55 3 90 2
34 -1 62 -5 62 -4 0 -4 8 1 18 5 9 6 26 2 37 -11 30 5 52 42 58 86 13 217 61
268 97 16 11 31 20 34 20 7 0 50 29 95 65 58 45 167 164 210 230 89 134 130
241 146 381 6 52 7 1685 1 1749 -5 47 -21 121 -34 155 -3 8 -6 18 -7 23 -2 4
-4 9 -5 12 -1 3 -3 8 -4 13 -3 15 -41 89 -70 137 -138 229 -391 413 -626 453
-52 9 -55 17 -48 175 2 31 0 57 -4 57 -4 0 -4 11 1 23 5 13 6 29 2 36 -5 7 -6
25 -4 39 4 29 4 30 3 77 0 17 1 56 2 88 2 31 0 57 -4 57 -4 0 -4 11 1 23 5 13
6 29 2 36 -5 7 -6 25 -4 39 2 15 3 126 3 247 0 121 -1 226 0 233 0 14 0 30 -1
70 0 15 1 55 3 90 2 34 0 62 -4 62 -4 0 -4 11 1 23 5 13 6 29 2 36 -5 7 -6 25
-4 39 6 41 6 41 -1 137 -13 187 -110 387 -262 539 -44 44 -87 86 -95 91 -91
66 -124 87 -170 108 -46 22 -79 36 -99 42 -78 25 -126 36 -175 40 -56 5 -5674
13 -5679 8z m84 -163 c8 5 18 6 24 3 9 -6 62 -6 139 0 21 1 43 -1 50 -5 6 -3
18 -3 28 2 9 5 19 6 23 3 3 -4 30 -6 59 -4 28 1 69 2 90 1 42 0 62 0 80 0 6 1
40 -1 75 -2 34 -2 62 0 62 4 0 4 6 5 14 2 21 -8 146 -10 146 -2 0 3 12 3 27
-1 16 -4 44 -4 65 -1 20 4 42 4 49 -1 7 -4 20 -4 30 1 9 5 19 6 23 3 6 -6 61
-6 139 0 21 1 43 -1 50 -5 6 -3 18 -3 28 2 9 5 19 6 23 3 3 -4 30 -6 59 -4 28
1 69 2 90 1 20 0 44 0 52 0 37 0 46 0 58 -1 6 -1 28 -1 47 0 19 1 43 1 53 1 9
0 25 0 35 0 9 0 37 0 62 0 25 0 62 1 83 3 21 1 43 -1 50 -5 6 -3 18 -3 28 2 9
5 19 6 23 3 3 -4 30 -6 59 -4 28 1 69 2 90 1 20 0 44 0 52 0 38 0 53 0 95 0
25 0 62 1 83 3 21 1 43 -1 50 -5 6 -3 18 -3 28 2 9 5 19 6 23 3 3 -4 30 -6 59
-4 28 1 58 2 65 2 6 0 22 -1 35 -1 12 0 39 1 60 3 21 1 43 -1 50 -5 6 -3 18
-3 28 2 9 5 19 6 23 3 3 -3 27 -5 54 -4 79 3 134 1 143 -5 5 -3 9 -1 9 5 0 6
6 8 14 5 21 -8 146 -10 146 -2 0 3 12 3 27 -1 16 -4 44 -4 65 -1 20 4 42 4 49
-1 7 -4 20 -4 30 1 9 5 19 6 23 3 6 -6 61 -6 139 0 21 1 43 -1 50 -5 6 -3 18
-3 28 2 9 5 19 6 23 3 3 -4 30 -6 59 -4 28 1 69 2 90 1 42 0 62 0 80 0 6 1 40
-1 75 -2 34 -2 62 0 62 4 0 4 6 5 14 2 23 -9 146 -10 146 -1 0 5 5 5 11 2 10
-7 91 -8 162 -3 21 2 43 0 50 -4 6 -3 18 -3 28 2 9 5 19 6 23 3 3 -4 30 -6 59
-4 28 1 58 2 65 2 6 0 22 -1 35 -1 12 0 39 1 60 3 21 1 43 -1 50 -5 6 -3 18
-3 28 2 9 5 19 6 23 3 3 -4 30 -6 59 -4 28 1 69 2 90 1 20 0 44 0 52 0 38 0
53 0 95 0 25 0 62 1 83 3 21 1 43 -1 50 -5 6 -3 18 -3 28 2 9 5 19 6 23 3 3
-4 30 -6 59 -4 28 1 69 2 90 1 20 0 44 0 52 0 37 0 46 0 58 -1 6 -1 28 -1 47
0 19 1 43 1 53 1 9 0 23 0 30 1 46 1 186 -11 207 -19 14 -5 30 -11 35 -12 94
-23 214 -98 316 -199 111 -110 178 -225 210 -359 17 -69 18 -175 18 -1628 0
-855 -3 -1554 -6 -1554 -3 0 -344 337 -756 750 -413 413 -753 750 -757 750 -4
0 -275 -269 -603 -597 l-597 -596 -997 996 c-548 548 -999 997 -1003 997 -4 0
-526 -519 -1161 -1154 -706 -706 -1157 -1150 -1161 -1143 -4 6 -4 14 0 17 10
7 9 130 -1 130 -4 0 -4 8 2 17 5 9 6 26 2 37 -4 12 -6 32 -4 46 5 50 8 180 3
180 -3 0 -4 19 -2 42 6 116 6 158 -1 158 -4 0 -4 8 2 17 5 9 6 26 2 37 -4 12
-6 32 -4 46 6 55 8 180 1 180 -3 0 -4 8 -2 18 6 26 10 142 4 142 -3 0 -4 19
-2 42 6 116 6 158 -1 158 -4 0 -4 8 2 17 5 9 6 26 2 37 -4 12 -6 32 -4 46 6
48 8 180 3 180 -3 0 -4 19 -2 42 6 115 6 158 -1 158 -4 0 -3 8 2 19 6 10 8 20
6 23 -9 9 -12 63 -5 83 4 11 4 30 -1 41 -4 12 -5 24 -2 28 10 9 8 136 -2 136
-5 0 -4 5 2 11 7 7 8 20 4 33 -4 11 -6 32 -4 46 6 51 5 138 -1 148 -3 6 -2 13
3 17 6 3 7 15 2 27 -4 12 -5 38 -1 59 4 20 3 44 -2 52 -5 9 -4 18 1 22 7 3 7
15 1 29 -5 13 -7 26 -4 28 6 7 10 118 4 118 -3 0 -4 19 -2 42 6 116 6 158 -1
158 -4 0 -4 8 2 17 5 9 6 26 2 37 -4 12 -6 32 -4 46 1 14 4 59 6 100 6 133 59
271 149 388 48 61 166 172 206 193 15 8 29 17 32 20 5 7 118 60 135 64 6 1 17
5 25 8 33 12 68 18 130 23 35 3 66 7 69 9 2 2 11 0 20 -5 10 -5 23 -5 31 0z
m3055 -3111 c1452 -1452 1528 -1530 1495 -1529 -38 0 -44 0 -140 -1 -36 0 -72
0 -80 0 -8 0 -44 0 -80 0 -36 -1 -72 -1 -80 0 -8 0 -44 0 -80 0 -36 0 -72 0
-80 0 -8 0 -44 0 -80 0 -36 -1 -72 -1 -80 0 -8 0 -44 0 -80 0 -36 0 -72 0 -80
0 -8 0 -44 0 -80 0 -36 -1 -72 -1 -80 0 -8 0 -44 0 -80 0 -36 0 -72 0 -80 0
-8 0 -44 0 -80 0 -36 -1 -72 -1 -80 0 -8 0 -44 0 -80 0 -36 0 -72 0 -80 0 -8
0 -44 0 -80 0 -36 -1 -72 -1 -80 0 -8 0 -44 0 -80 0 -36 0 -72 0 -80 0 -8 0
-44 0 -80 0 -36 -1 -72 -1 -80 0 -8 0 -44 0 -80 0 -36 0 -72 0 -80 0 -8 0 -40
1 -70 1 l-55 0 -739 -740 c-407 -406 -741 -738 -743 -737 -3 4 -4 48 -2 120 1
32 -1 60 -4 64 -4 3 -2 13 3 22 5 10 5 23 1 30 -5 7 -5 30 -1 51 4 21 4 44 -1
51 -4 7 -4 20 1 29 5 9 5 22 1 29 -5 7 -5 30 -1 51 4 21 4 44 -1 51 -4 7 -4
20 1 29 5 9 5 22 1 29 -5 7 -5 30 -1 51 4 21 4 44 -1 51 -4 7 -4 20 1 29 5 9
5 22 1 29 -5 7 -5 30 -1 51 4 21 4 44 -1 51 -4 7 -4 20 1 29 5 9 5 22 1 29 -5
7 -5 30 -1 51 4 21 4 44 -1 51 -4 7 -4 20 1 29 5 9 5 22 1 29 -5 7 -5 30 -1
51 4 21 4 44 -1 51 -4 7 -4 20 1 29 5 9 5 22 1 29 -5 7 -5 30 -1 51 4 21 4 44
-1 51 -4 7 -4 20 1 29 5 9 5 22 1 28 -4 7 -5 33 -1 58 6 38 4 47 -13 59 -12 8
-28 11 -41 6 -24 -8 -63 -7 -73 2 -3 4 -13 2 -23 -3 -10 -5 -20 -7 -23 -3 -7
6 -104 6 -149 0 -14 -2 -32 -1 -39 4 -7 4 -21 3 -31 -2 -10 -5 -18 -6 -18 -2
0 7 -89 7 -150 0 -14 -2 -32 0 -41 4 -8 4 -21 4 -29 -1 -8 -5 -18 -6 -23 -3
-5 3 -37 5 -71 4 -99 -3 -107 -3 -191 3 -198 14 -395 129 -536 315 -44 58
-108 174 -113 204 -1 6 -4 17 -8 22 -10 18 -21 79 -24 140 l-2 60 1156 1157
c636 637 1159 1158 1162 1158 3 0 693 -689 1535 -1531z m2428 -28 c756 -756
758 -758 756 -797 -6 -125 -62 -272 -147 -384 -50 -66 -142 -157 -191 -188
-14 -9 -29 -21 -33 -27 -4 -5 -8 -6 -8 -2 0 5 -13 -1 -29 -12 -23 -17 -61 -36
-91 -46 -3 -1 -12 -4 -20 -8 -31 -12 -105 -29 -147 -33 -24 -2 -48 -6 -53 -9
-6 -4 -10 -3 -10 2 0 7 -88 7 -150 0 -14 -2 -32 0 -41 4 -8 4 -21 4 -29 -1 -8
-5 -18 -6 -23 -3 -10 6 -105 6 -149 0 -14 -2 -32 -1 -39 4 -7 4 -21 3 -31 -2
-10 -5 -18 -6 -18 -2 0 7 -89 7 -150 0 -14 -2 -32 0 -41 4 -8 4 -21 4 -29 -1
-8 -5 -19 -6 -24 -2 -6 3 -28 5 -49 3 -38 -3 -39 -2 -599 558 l-562 561 570
570 c313 313 571 570 574 570 3 0 346 -342 763 -759z m998 715 c58 -18 163
-66 167 -78 2 -4 8 -8 14 -8 5 0 35 -20 66 -44 180 -138 303 -352 306 -528 1
-21 5 -38 9 -38 5 0 5 -5 2 -11 -10 -15 -11 -129 -2 -129 4 0 4 -8 -2 -17 -5
-9 -6 -26 -2 -37 4 -12 6 -32 4 -46 -6 -51 -5 -138 1 -148 3 -6 2 -13 -3 -17
-6 -3 -7 -15 -2 -27 4 -12 5 -38 1 -59 -4 -20 -3 -44 2 -52 5 -9 4 -18 -1 -22
-7 -3 -7 -15 -1 -29 5 -13 7 -26 4 -28 -6 -7 -10 -118 -4 -118 3 0 4 -19 2
-42 -6 -116 -6 -158 1 -158 4 0 4 -8 -2 -17 -5 -9 -6 -26 -2 -37 4 -12 6 -32
4 -46 -6 -51 -8 -180 -2 -180 3 0 2 -25 -1 -55 -3 -30 -2 -61 2 -69 5 -8 4
-17 -1 -21 -6 -3 -7 -15 -2 -27 4 -12 5 -38 1 -59 -4 -20 -3 -44 2 -52 5 -9 4
-18 -1 -22 -7 -3 -7 -15 -1 -29 5 -13 6 -26 4 -29 -3 -3 -7 -29 -9 -59 -7
-116 -54 -236 -134 -348 -29 -40 -164 -180 -169 -175 -2 1 -14 -7 -26 -19 -29
-26 -153 -89 -220 -111 -26 -8 -92 -18 -145 -21 -53 -3 -97 -7 -99 -9 -1 -1
-3 -155 -3 -341 l0 -338 -342 342 -343 343 -850 1 c-655 0 -863 3 -910 13 -60
13 -196 71 -202 87 -2 4 -9 8 -15 8 -27 1 -163 124 -223 201 -51 67 -124 205
-124 236 0 12 -4 24 -8 27 -4 2 -9 18 -10 35 l-2 31 1157 0 c637 1 1183 2
1213 4 392 24 793 429 816 824 9 148 9 192 2 192 -4 0 -4 11 1 23 5 13 6 29 2
36 -5 7 -6 25 -4 39 2 15 3 53 3 85 0 31 0 64 0 72 0 28 0 45 -1 58 -1 6 0 26
0 42 2 30 3 158 2 185 0 8 0 47 0 85 0 39 0 76 0 83 -1 6 -1 19 -1 27 0 25 0
44 -1 73 0 15 1 55 3 90 2 34 0 62 -4 62 -4 0 -4 11 1 23 5 13 6 29 2 36 -5 7
-6 25 -4 39 2 15 3 53 3 85 0 31 0 64 0 72 0 15 0 31 0 63 0 106 -3 103 81 78z"/>
<path d="M5900 7228 c-38 -9 -127 -47 -149 -63 -7 -5 -38 -34 -67 -64 -105
-105 -146 -257 -109 -406 40 -158 149 -270 310 -318 213 -62 455 64 530 278
23 66 27 189 9 258 -38 147 -164 273 -314 314 -32 9 -177 10 -210 1z m250
-104 c124 -59 202 -176 206 -309 2 -71 -26 -186 -47 -193 -5 -2 -9 -10 -9 -18
0 -8 -4 -14 -10 -14 -5 0 -10 -6 -10 -14 0 -7 -10 -20 -22 -29 -13 -8 -32 -23
-43 -34 -11 -10 -45 -30 -75 -43 -45 -20 -71 -24 -145 -24 -81 0 -96 4 -150
31 -82 43 -132 95 -170 177 -29 62 -32 77 -30 150 3 93 24 156 76 221 101 127
281 168 429 99z"/>
</g>
</svg>
